<svg width="458" height="122" viewBox="0 0 458 122" fill="none" xmlns="http://www.w3.org/2000/svg">
<path d="M90.112 7.424C92.8427 7.424 95.488 8.02134 98.048 9.216C100.693 10.3253 102.827 11.904 104.448 13.952C106.155 15.9147 107.008 18.048 107.008 20.352C107.008 25.3867 103.595 27.904 96.768 27.904C94.8053 27.904 93.2693 27.776 92.16 27.52C91.136 27.1787 89.8987 26.6667 88.448 25.984C88.192 26.5813 88.064 27.4347 88.064 28.544C88.064 29.9093 88.2773 31.5307 88.704 33.408C89.216 35.2853 89.8133 37.0347 90.496 38.656C92.288 41.3013 93.184 44.4587 93.184 48.128C93.184 49.7493 92.9707 51.712 92.544 54.016C91.52 58.4533 89.2587 62.5067 85.76 66.176C82.3467 69.8453 77.9093 72.7467 72.448 74.88C67.072 76.928 61.1413 77.952 54.656 77.952C49.7067 77.952 45.056 77.6107 40.704 76.928C39.424 78.0373 38.784 79.4027 38.784 81.024C38.784 82.1333 39.296 83.072 40.32 83.84C41.344 84.5227 43.0507 84.864 45.44 84.864H64.64C71.2107 84.864 76.3307 86.016 80 88.32C83.6693 90.5387 85.504 93.7387 85.504 97.92C85.504 99.456 85.248 101.035 84.736 102.656C83.712 105.984 81.3653 109.056 77.696 111.872C74.112 114.773 69.0347 117.12 62.464 118.912C55.8933 120.704 47.9147 121.6 38.528 121.6C30.1653 121.6 23.0827 120.875 17.28 119.424C11.4773 117.973 7.168 115.968 4.352 113.408C1.45067 110.933 0 108.16 0 105.088C0 104.405 0.170667 103.381 0.512 102.016C1.28 99.5413 3.02933 97.536 5.76 96C8.40533 94.3787 12.8 93.312 18.944 92.8C16.896 90.8373 15.872 88.4907 15.872 85.76C15.872 84.8213 16 83.84 16.256 82.816C17.6213 78.3787 21.632 75.0933 28.288 72.96C21.888 69.4613 18.688 64.3413 18.688 57.6C18.688 55.7227 18.944 53.76 19.456 51.712C20.48 47.2747 22.7413 43.264 26.24 39.68C29.7387 36.0107 34.2187 33.1093 39.68 30.976C45.1413 28.8427 51.1147 27.776 57.6 27.776C67.7547 27.776 75.7333 29.0987 81.536 31.744C80.256 29.7813 79.232 27.6907 78.464 25.472C77.7813 23.168 77.44 21.0773 77.44 19.2C77.44 15.9573 78.464 13.184 80.512 10.88C82.6453 8.576 85.8453 7.424 90.112 7.424ZM62.336 52.864C63.7013 48.512 64.384 45.184 64.384 42.88C64.384 39.9787 63.1467 38.528 60.672 38.528C58.5387 38.528 56.6613 39.5947 55.04 41.728C53.504 43.776 51.9253 47.488 50.304 52.864C48.9387 57.3013 48.256 60.672 48.256 62.976C48.256 65.792 49.4507 67.2 51.84 67.2C53.9733 67.2 55.8507 66.1333 57.472 64C59.0933 61.8667 60.7147 58.1547 62.336 52.864ZM36.864 97.792C34.4747 97.792 32.2987 97.664 30.336 97.408C29.312 98.688 28.8 100.395 28.8 102.528C28.8853 104.661 29.7387 106.197 31.36 107.136C33.0667 108.075 35.6693 108.544 39.168 108.544C43.4347 108.544 46.8907 107.904 49.536 106.624C52.2667 105.344 53.632 103.509 53.632 101.12C53.632 100.096 53.248 99.2853 52.48 98.688C51.712 98.0907 50.6027 97.792 49.152 97.792H36.864Z" fill="#FF0000"/>
<path d="M169.826 78.336C169.655 79.0187 169.57 79.5307 169.57 79.872C169.57 80.4693 169.698 80.9387 169.954 81.28C170.295 81.6213 170.722 81.792 171.234 81.792C172.258 81.792 173.111 81.3653 173.794 80.512C174.562 79.5733 175.074 79.104 175.33 79.104C175.757 79.104 176.098 79.4027 176.354 80C176.695 80.512 176.866 81.152 176.866 81.92C176.951 84.3093 176.098 86.6987 174.306 89.088C172.514 91.392 169.997 93.312 166.754 94.848C163.511 96.384 159.885 97.152 155.874 97.152C150.839 97.152 146.829 96.128 143.842 94.08C140.855 92.032 138.935 89.344 138.082 86.016C135.01 89.4293 131.597 92.032 127.842 93.824C124.173 95.5307 120.418 96.384 116.578 96.384C110.605 96.384 105.57 94.9333 101.474 92.032C97.4633 89.0453 95.458 84.9067 95.458 79.616C95.458 77.2267 95.8847 74.752 96.738 72.192L104.93 45.44C105.186 44.672 105.314 44.032 105.314 43.52C105.314 42.5813 105.101 41.856 104.674 41.344C104.247 40.7467 103.607 40.1493 102.754 39.552C101.901 38.8693 101.303 38.272 100.962 37.76C100.621 37.248 100.578 36.5653 100.834 35.712C101.346 33.7493 104.034 32.0427 108.898 30.592C113.762 29.056 118.839 28.288 124.13 28.288C129.079 28.288 132.706 29.2267 135.01 31.104C137.314 32.9813 138.466 35.5413 138.466 38.784C138.466 40.7467 138.167 42.624 137.57 44.416L129.506 71.04C129.165 71.9787 128.994 72.8747 128.994 73.728C128.994 74.9227 129.335 75.8187 130.018 76.416C130.701 77.0133 131.597 77.312 132.706 77.312C134.327 77.312 135.65 76.8427 136.674 75.904C137.698 74.9653 138.722 73.3867 139.746 71.168L147.554 45.44C147.81 44.672 147.938 44.032 147.938 43.52C147.938 42.5813 147.725 41.856 147.298 41.344C146.871 40.7467 146.274 40.1493 145.506 39.552C144.653 38.8693 144.055 38.272 143.714 37.76C143.373 37.248 143.33 36.5653 143.586 35.712C144.013 33.7493 146.658 32.0427 151.522 30.592C156.386 29.056 161.463 28.288 166.754 28.288C171.703 28.288 175.33 29.2267 177.634 31.104C180.023 32.9813 181.218 35.4987 181.218 38.656C181.218 40.2773 180.877 42.1973 180.194 44.416L169.826 78.336Z" fill="#FF0000"/>
<path d="M215.208 28.288C220.157 28.288 223.784 29.2267 226.088 31.104C228.392 32.9813 229.544 35.5413 229.544 38.784C229.544 40.7467 229.245 42.624 228.648 44.416L216.872 82.688C216.616 83.712 216.488 84.608 216.488 85.376C216.488 86.4853 216.701 87.3813 217.128 88.064C217.555 88.6613 218.152 89.2587 218.92 89.856C219.517 90.4533 219.944 90.9653 220.2 91.392C220.456 91.7333 220.499 92.2027 220.328 92.8C219.901 93.9093 219.048 94.72 217.768 95.232C216.488 95.744 214.525 96 211.88 96H182.696C180.477 96 178.856 95.6587 177.832 94.976C176.808 94.208 176.467 93.2267 176.808 92.032C177.149 91.008 178.045 90.112 179.496 89.344C180.776 88.6613 181.843 87.8507 182.696 86.912C183.549 85.9733 184.275 84.48 184.872 82.432L196.008 45.44C196.264 44.672 196.392 44.032 196.392 43.52C196.392 42.5813 196.179 41.856 195.752 41.344C195.325 40.7467 194.685 40.1493 193.832 39.552C192.979 38.8693 192.381 38.272 192.04 37.76C191.699 37.248 191.656 36.5653 191.912 35.712C192.424 33.7493 195.112 32.0427 199.976 30.592C204.84 29.056 209.917 28.288 215.208 28.288ZM223.784 0C227.112 0 229.885 1.10933 232.104 3.328C234.323 5.46133 235.432 8.10667 235.432 11.264C235.432 13.4827 234.835 15.6587 233.64 17.792C232.531 19.9253 230.909 21.6747 228.776 23.04C226.728 24.32 224.424 24.96 221.864 24.96C218.621 24.96 215.891 23.8933 213.672 21.76C211.539 19.5413 210.429 16.8107 210.344 13.568C210.344 11.4347 210.899 9.344 212.008 7.29601C213.117 5.16267 214.696 3.41334 216.744 2.048C218.792 0.682668 221.139 0 223.784 0Z" fill="#FF0000"/>
<path d="M269.251 1.408C274.2 1.408 277.827 2.34667 280.131 4.22401C282.52 6.10134 283.715 8.66134 283.715 11.904C283.715 13.7813 283.416 15.616 282.819 17.408L262.723 82.688C262.467 83.712 262.339 84.608 262.339 85.376C262.339 86.4853 262.552 87.3813 262.979 88.064C263.406 88.6613 264.003 89.2587 264.771 89.856C265.368 90.4533 265.795 90.9653 266.051 91.392C266.307 91.7333 266.35 92.2027 266.179 92.8C265.752 93.9093 264.899 94.72 263.619 95.232C262.339 95.744 260.376 96 257.731 96H228.547C226.328 96 224.707 95.6587 223.683 94.976C222.659 94.208 222.318 93.2267 222.659 92.032C223 91.008 223.896 90.112 225.347 89.344C226.627 88.6613 227.694 87.8507 228.547 86.912C229.4 85.9733 230.126 84.48 230.723 82.432L250.179 18.56C250.435 17.792 250.563 17.152 250.563 16.64C250.563 15.7013 250.307 14.9333 249.795 14.336C249.368 13.7387 248.771 13.1413 248.003 12.544C247.15 11.8613 246.51 11.264 246.083 10.752C245.742 10.24 245.699 9.55733 245.955 8.704C246.467 6.74134 249.155 5.03467 254.019 3.584C258.883 2.13334 263.96 1.408 269.251 1.408Z" fill="#FF0000"/>
<path d="M316.126 1.408C321.075 1.408 324.702 2.34667 327.006 4.22401C329.395 6.10134 330.59 8.66134 330.59 11.904C330.59 13.7813 330.291 15.616 329.694 17.408L309.598 82.688C309.342 83.712 309.214 84.608 309.214 85.376C309.214 86.4853 309.427 87.3813 309.854 88.064C310.281 88.6613 310.878 89.2587 311.646 89.856C312.243 90.4533 312.67 90.9653 312.926 91.392C313.182 91.7333 313.225 92.2027 313.054 92.8C312.627 93.9093 311.774 94.72 310.494 95.232C309.214 95.744 307.251 96 304.606 96H275.422C273.203 96 271.582 95.6587 270.558 94.976C269.534 94.208 269.193 93.2267 269.534 92.032C269.875 91.008 270.771 90.112 272.222 89.344C273.502 88.6613 274.569 87.8507 275.422 86.912C276.275 85.9733 277.001 84.48 277.598 82.432L297.054 18.56C297.31 17.792 297.438 17.152 297.438 16.64C297.438 15.7013 297.182 14.9333 296.67 14.336C296.243 13.7387 295.646 13.1413 294.878 12.544C294.025 11.8613 293.385 11.264 292.958 10.752C292.617 10.24 292.574 9.55733 292.83 8.704C293.342 6.74134 296.03 5.03467 300.894 3.584C305.758 2.13334 310.835 1.408 316.126 1.408Z" fill="#FF0000"/>
<path d="M379.385 29.952C381.006 29.952 382.244 30.2933 383.097 30.976C384.036 31.6587 384.505 32.5973 384.505 33.792C384.505 34.1333 384.42 34.7307 384.249 35.584C383.14 39.3387 380.58 41.216 376.569 41.216H369.145L359.545 72.832C359.118 74.112 358.905 75.4347 358.905 76.8C358.905 78.336 359.332 79.4027 360.185 80C361.038 80.5973 362.233 80.896 363.769 80.896C365.134 80.896 366.841 80.7253 368.889 80.384C369.913 80.128 370.809 80 371.577 80C372.174 80 372.601 80.2133 372.857 80.64C373.198 80.9813 373.369 81.4507 373.369 82.048C373.454 83.7547 372.174 85.8453 369.529 88.32C366.969 90.7093 363.47 92.8 359.033 94.592C354.596 96.2987 349.689 97.152 344.313 97.152C338.51 97.152 333.86 95.8293 330.361 93.184C326.862 90.5387 325.113 86.912 325.113 82.304C325.113 80.1707 325.454 78.1227 326.137 76.16L334.329 50.816C334.756 49.3653 334.969 48.2133 334.969 47.36C334.969 45.6533 334.542 44.2027 333.689 43.008C332.921 41.8133 331.812 40.576 330.361 39.296C329.081 38.1013 328.185 37.12 327.673 36.352C327.161 35.4987 327.033 34.5173 327.289 33.408C327.63 32.2987 328.356 31.4453 329.465 30.848C330.574 30.2507 332.324 29.952 334.713 29.952H341.881L349.945 21.888C352.761 19.072 355.321 17.1093 357.625 16C360.014 14.8907 363.086 14.336 366.841 14.336C372.217 14.336 374.905 16.384 374.905 20.48C374.905 21.76 374.734 22.9547 374.393 24.064L372.601 29.952H379.385Z" fill="#FF0000"/>
<path d="M445.009 28.288C448.764 28.288 451.75 29.824 453.969 32.896C456.273 35.8827 457.425 39.9787 457.425 45.184C457.425 49.7067 456.614 54.5707 454.993 59.776C451.836 70.272 446.758 80.1707 439.761 89.472C432.849 98.7733 424.87 106.24 415.825 111.872C406.865 117.504 397.905 120.32 388.945 120.32C384.508 120.32 380.668 119.552 377.425 118.016C374.268 116.48 371.878 114.432 370.257 111.872C368.55 109.312 367.697 106.581 367.697 103.68C367.697 102.4 367.91 100.992 368.337 99.456C369.105 97.0667 370.385 95.232 372.177 93.952C373.969 92.672 376.102 92.032 378.577 92.032C382.502 92.032 385.702 93.3547 388.177 96C390.737 98.7307 392.358 102.443 393.041 107.136C398.502 106.88 403.537 104.533 408.145 100.096C403.793 99.328 400.55 97.8773 398.417 95.744C396.369 93.5253 394.961 90.112 394.193 85.504L389.073 54.144C388.817 52.5227 388.433 51.4133 387.921 50.816C387.494 50.1333 386.897 49.792 386.129 49.792C385.532 49.792 384.806 50.0907 383.953 50.688C383.185 51.2853 382.63 51.584 382.289 51.584C381.606 51.584 381.265 50.8587 381.265 49.408C381.265 48.2133 381.478 46.9333 381.905 45.568C383.441 40.704 386.3 36.608 390.481 33.28C394.662 29.8667 399.526 28.16 405.073 28.16C410.534 28.16 414.545 29.7813 417.105 33.024C419.75 36.2667 421.457 41.2587 422.225 48L426.065 76.16C426.321 78.2933 427.089 79.36 428.369 79.36C429.905 79.36 431.697 77.9947 433.745 75.264C435.793 72.448 437.798 68.48 439.761 63.36C437.201 61.056 435.238 58.4107 433.873 55.424C432.508 52.4373 431.825 49.2373 431.825 45.824C431.825 43.1787 432.166 40.7893 432.849 38.656C433.873 35.2427 435.452 32.6827 437.585 30.976C439.804 29.184 442.278 28.288 445.009 28.288Z" fill="#FF0000"/>
</svg>
